<svg width="20" height="21" fill="white" xmlns="http://www.w3.org/2000/svg"><path fill-rule="evenodd" clip-rule="evenodd" d="M10 18.667a8 8 0 100-16 8 8 0 000 16zm10-8c0 5.522-4.477 10-10 10s-10-4.478-10-10c0-5.523 4.477-10 10-10s10 4.477 10 10z"/><path d="M8.674 12.724h2.016c0-.448.07-.7.266-.952.224-.266.588-.462 1.176-.84.616-.406 1.316-.952 1.316-2.268 0-1.694-1.4-2.856-3.486-2.856-2.338 0-3.724 1.358-3.766 3.332H8.45c0-.896.574-1.442 1.414-1.442.672 0 1.19.392 1.19 1.05 0 .854-.798 1.064-1.414 1.638-.672.56-.966.91-.966 2.338zm-.224 2.1c0 .65.527 1.176 1.176 1.176h.042a1.176 1.176 0 100-2.352h-.042c-.65 0-1.176.527-1.176 1.176z"/></svg>